<svg xmlns="http://www.w3.org/2000/svg" xmlns:xlink="http://www.w3.org/1999/xlink" width="500" zoomAndPan="magnify" viewBox="0 0 375 374.999991" height="500" preserveAspectRatio="xMidYMid meet" version="1.0"><defs><g/><clipPath id="a91cf7436e"><path d="M 203.386719 113.773438 L 342.253906 113.773438 L 342.253906 138.554688 L 203.386719 138.554688 Z M 203.386719 113.773438 " clip-rule="nonzero"/></clipPath><clipPath id="a8daf100b7"><path d="M 0.386719 0.773438 L 139.253906 0.773438 L 139.253906 25.554688 L 0.386719 25.554688 Z M 0.386719 0.773438 " clip-rule="nonzero"/></clipPath><clipPath id="b4fb3793d0"><rect x="0" width="140" y="0" height="26"/></clipPath><clipPath id="c97b43ac32"><path d="M 325.570312 149.5 L 333 149.5 L 333 158.5 L 325.570312 158.5 Z M 325.570312 149.5 " clip-rule="nonzero"/></clipPath><clipPath id="973409c3a2"><path d="M 333 149.5 L 342.070312 149.5 L 342.070312 158.5 L 333 158.5 Z M 333 149.5 " clip-rule="nonzero"/></clipPath><clipPath id="b3c98fc607"><rect x="0" width="357" y="0" height="122"/></clipPath><clipPath id="4fde5e5677"><rect x="0" width="117" y="0" height="33"/></clipPath></defs><rect x="-37.5" width="450" fill="#ffffff" y="-37.499999" height="449.999989" fill-opacity="1"/><rect x="-37.5" width="450" fill="#000000" y="-37.499999" height="449.999989" fill-opacity="1"/><g clip-path="url(#a91cf7436e)"><g transform="matrix(1, 0, 0, 1, 203, 113)"><g clip-path="url(#b4fb3793d0)"><g clip-path="url(#a8daf100b7)"><path fill="#ffffff" d="M 0.386719 0.773438 L 139.210938 0.773438 L 139.210938 25.554688 L 0.386719 25.554688 Z M 0.386719 0.773438 " fill-opacity="1" fill-rule="nonzero"/></g></g></g></g><g clip-path="url(#c97b43ac32)"><path fill="#ffffff" d="M 328.195312 158.328125 L 328.195312 150.996094 L 325.578125 150.996094 L 325.578125 149.5 L 332.589844 149.5 L 332.589844 150.996094 L 329.976562 150.996094 L 329.976562 158.328125 Z M 328.195312 158.328125 " fill-opacity="1" fill-rule="nonzero"/></g><g clip-path="url(#973409c3a2)"><path fill="#ffffff" d="M 333.714844 158.328125 L 333.714844 149.5 L 336.382812 149.5 L 337.984375 155.523438 L 339.566406 149.5 L 342.238281 149.5 L 342.238281 158.328125 L 340.585938 158.328125 L 340.585938 151.378906 L 338.832031 158.328125 L 337.117188 158.328125 L 335.371094 151.378906 L 335.371094 158.328125 Z M 333.714844 158.328125 " fill-opacity="1" fill-rule="nonzero"/></g><g transform="matrix(1, 0, 0, 1, 9, 145)"><g clip-path="url(#b3c98fc607)"><g fill="#000000" fill-opacity="1"><g transform="translate(2.170385, 86.640682)"><g><path d="M 5.8125 -82.695312 L 30.609375 -82.695312 C 38.695312 -82.695312 45.210938 -80.921875 50.152344 -77.378906 C 55.378906 -73.625 57.996094 -67.691406 57.996094 -59.570312 C 57.996094 -55.066406 57.039062 -51.167969 55.125 -47.878906 C 53.1875 -44.550781 50.316406 -41.90625 46.507812 -39.949219 L 45.234375 -42.425781 L 45.71875 -45.167969 C 52.0625 -44.050781 56.871094 -41.554688 60.144531 -37.6875 C 63.425781 -33.808594 65.066406 -28.671875 65.066406 -22.277344 C 65.066406 -14.71875 62.425781 -8.628906 57.140625 -4.007812 C 51.96875 0.519531 44.964844 2.785156 36.128906 2.785156 L 3.027344 2.785156 L 3.027344 -82.695312 Z M 5.8125 -77.125 L 5.8125 -79.910156 L 8.597656 -79.910156 L 8.597656 0 L 5.8125 0 L 5.8125 -2.785156 L 36.128906 -2.785156 C 43.566406 -2.785156 49.347656 -4.589844 53.472656 -8.199219 C 57.488281 -11.710938 59.496094 -16.40625 59.496094 -22.277344 C 59.496094 -27.3125 58.296875 -31.25 55.894531 -34.089844 C 53.484375 -36.933594 49.773438 -38.796875 44.75 -39.683594 L 36.605469 -41.117188 L 43.960938 -44.902344 C 46.804688 -46.363281 48.917969 -48.289062 50.308594 -50.679688 C 51.71875 -53.101562 52.425781 -56.066406 52.425781 -59.570312 C 52.425781 -65.785156 50.585938 -70.210938 46.902344 -72.851562 C 42.933594 -75.699219 37.5 -77.125 30.609375 -77.125 Z M 24.023438 -51.410156 L 25.472656 -51.410156 C 28.949219 -51.410156 31.449219 -51.949219 32.96875 -53.027344 C 34.1875 -53.890625 34.796875 -55.460938 34.796875 -57.730469 C 34.796875 -59.453125 34.199219 -60.714844 33 -61.519531 C 31.453125 -62.558594 28.945312 -63.082031 25.472656 -63.082031 L 24.023438 -63.082031 L 24.023438 -65.867188 L 26.804688 -65.867188 L 26.804688 -48.625 L 24.023438 -48.625 Z M 21.238281 -45.839844 L 21.238281 -68.648438 L 25.472656 -68.648438 C 30.074219 -68.648438 33.621094 -67.816406 36.109375 -66.144531 C 38.949219 -64.234375 40.367188 -61.429688 40.367188 -57.730469 C 40.367188 -53.542969 38.976562 -50.460938 36.191406 -48.484375 C 33.707031 -46.722656 30.132812 -45.839844 25.472656 -45.839844 Z M 24.023438 -16.828125 L 29.734375 -16.828125 C 33.628906 -16.828125 36.457031 -17.417969 38.214844 -18.589844 C 39.617188 -19.523438 40.316406 -20.980469 40.316406 -22.957031 C 40.316406 -25.539062 39.601562 -27.324219 38.171875 -28.320312 C 36.421875 -29.539062 33.609375 -30.148438 29.734375 -30.148438 L 24.023438 -30.148438 L 24.023438 -32.933594 L 26.804688 -32.933594 L 26.804688 -14.042969 L 24.023438 -14.042969 Z M 21.238281 -11.261719 L 21.238281 -35.71875 L 29.734375 -35.71875 C 34.773438 -35.71875 38.644531 -34.777344 41.351562 -32.894531 C 44.375 -30.789062 45.886719 -27.476562 45.886719 -22.957031 C 45.886719 -18.992188 44.359375 -15.992188 41.304688 -13.957031 C 38.609375 -12.160156 34.753906 -11.261719 29.734375 -11.261719 Z M 21.238281 -11.261719 "/></g></g></g><g fill="#000000" fill-opacity="1"><g transform="translate(63.765021, 86.640682)"><g><path d="M -2.90625 -82.695312 L 20.496094 -82.695312 L 37.976562 -55.859375 L 35.644531 -54.339844 L 33.3125 -55.859375 L 50.796875 -82.695312 L 79.40625 -82.695312 L 47.066406 -34.292969 L 44.75 -35.839844 L 47.535156 -35.839844 L 47.535156 2.785156 L 23.753906 2.785156 L 23.753906 -35.839844 L 26.539062 -35.839844 L 24.222656 -34.292969 L -8.117188 -82.695312 Z M -2.90625 -77.125 L -2.90625 -79.910156 L -0.589844 -81.457031 L 29.324219 -36.683594 L 29.324219 0 L 26.539062 0 L 26.539062 -2.785156 L 44.75 -2.785156 L 44.75 0 L 41.964844 0 L 41.964844 -36.683594 L 71.878906 -81.457031 L 74.195312 -79.910156 L 74.195312 -77.125 L 52.304688 -77.125 L 52.304688 -79.910156 L 54.636719 -78.390625 L 35.644531 -49.238281 L 16.652344 -78.390625 L 18.984375 -79.910156 L 18.984375 -77.125 Z M -2.90625 -77.125 "/></g></g></g><g fill="#000000" fill-opacity="1"><g transform="translate(135.044825, 86.640682)"><g><path d="M 78.554688 2.785156 L 52.199219 2.785156 L 21.917969 -32.074219 L 24.023438 -33.902344 L 26.804688 -33.902344 L 26.804688 2.785156 L 3.027344 2.785156 L 3.027344 -82.695312 L 26.804688 -82.695312 L 26.804688 -47.269531 L 24.023438 -47.269531 L 21.890625 -49.058594 L 50.136719 -82.695312 L 79.535156 -82.695312 L 43.484375 -40.234375 L 41.359375 -42.039062 L 43.445312 -43.882812 L 84.738281 2.785156 Z M 78.554688 -2.785156 L 78.554688 0 L 76.46875 1.84375 L 37.675781 -42 L 71.394531 -81.710938 L 73.515625 -79.910156 L 73.515625 -77.125 L 51.433594 -77.125 L 51.433594 -79.910156 L 53.566406 -78.121094 L 21.238281 -39.621094 L 21.238281 -79.910156 L 24.023438 -79.910156 L 24.023438 -77.125 L 5.8125 -77.125 L 5.8125 -79.910156 L 8.597656 -79.910156 L 8.597656 0 L 5.8125 0 L 5.8125 -2.785156 L 24.023438 -2.785156 L 24.023438 0 L 21.238281 0 L 21.238281 -41.355469 L 55.570312 -1.828125 L 53.46875 0 L 53.46875 -2.785156 Z M 78.554688 -2.785156 "/></g></g></g><g fill="#000000" fill-opacity="1"><g transform="translate(211.263845, 86.640682)"><g><path d="M 16.855469 -23.511719 C 20.722656 -23.511719 24.011719 -22.160156 26.71875 -19.453125 C 29.425781 -16.746094 30.777344 -13.457031 30.777344 -9.589844 C 30.777344 -5.785156 29.425781 -2.53125 26.71875 0.175781 C 24.011719 2.882812 20.722656 4.238281 16.855469 4.238281 C 13.050781 4.238281 9.792969 2.882812 7.085938 0.175781 C 4.378906 -2.53125 3.027344 -5.785156 3.027344 -9.589844 C 3.027344 -13.457031 4.378906 -16.746094 7.085938 -19.453125 C 9.792969 -22.160156 13.050781 -23.511719 16.855469 -23.511719 Z M 16.855469 -17.941406 C 14.585938 -17.941406 12.644531 -17.132812 11.027344 -15.515625 C 9.40625 -13.894531 8.597656 -11.917969 8.597656 -9.589844 C 8.597656 -7.324219 9.40625 -5.378906 11.027344 -3.761719 C 12.644531 -2.140625 14.585938 -1.332031 16.855469 -1.332031 C 19.183594 -1.332031 21.160156 -2.140625 22.777344 -3.761719 C 24.398438 -5.378906 25.207031 -7.324219 25.207031 -9.589844 C 25.207031 -11.917969 24.398438 -13.894531 22.777344 -15.515625 C 21.160156 -17.132812 19.183594 -17.941406 16.855469 -17.941406 Z M 16.855469 -17.941406 "/></g></g></g><g fill="#000000" fill-opacity="1"><g transform="translate(245.063641, 86.640682)"><g><path d="M 48.980469 -80.953125 L 82.777344 2.785156 L 57.144531 2.785156 L 50.5625 -15.015625 L 53.175781 -15.980469 L 53.175781 -13.195312 L 22.761719 -13.195312 L 22.761719 -15.980469 L 25.375 -15.015625 L 18.792969 2.785156 L -6.839844 2.785156 L 27.664062 -82.695312 L 48.277344 -82.695312 Z M 43.8125 -78.867188 L 46.394531 -79.910156 L 46.394531 -77.125 L 29.542969 -77.125 L 29.542969 -79.910156 L 32.125 -78.867188 L -0.128906 1.042969 L -2.710938 0 L -2.710938 -2.785156 L 16.855469 -2.785156 L 16.855469 0 L 14.242188 -0.964844 L 20.824219 -18.765625 L 55.117188 -18.765625 L 61.699219 -0.964844 L 59.085938 0 L 59.085938 -2.785156 L 78.652344 -2.785156 L 78.652344 0 L 76.070312 1.042969 Z M 44.378906 -30.96875 L 35.464844 -54.214844 L 38.066406 -55.210938 L 38.066406 -52.425781 L 37.871094 -52.425781 L 37.871094 -55.210938 L 40.472656 -54.214844 L 31.5625 -30.96875 L 28.960938 -31.964844 L 28.960938 -34.75 L 46.976562 -34.75 L 46.976562 -31.964844 Z M 51.027344 -29.179688 L 24.910156 -29.179688 L 35.957031 -57.996094 L 39.980469 -57.996094 L 49.578125 -32.960938 Z M 51.027344 -29.179688 "/></g></g></g><g fill="#000000" fill-opacity="1"><g transform="translate(320.992109, 86.640682)"><g><path d="M 16.855469 -23.511719 C 20.722656 -23.511719 24.011719 -22.160156 26.71875 -19.453125 C 29.425781 -16.746094 30.777344 -13.457031 30.777344 -9.589844 C 30.777344 -5.785156 29.425781 -2.53125 26.71875 0.175781 C 24.011719 2.882812 20.722656 4.238281 16.855469 4.238281 C 13.050781 4.238281 9.792969 2.882812 7.085938 0.175781 C 4.378906 -2.53125 3.027344 -5.785156 3.027344 -9.589844 C 3.027344 -13.457031 4.378906 -16.746094 7.085938 -19.453125 C 9.792969 -22.160156 13.050781 -23.511719 16.855469 -23.511719 Z M 16.855469 -17.941406 C 14.585938 -17.941406 12.644531 -17.132812 11.027344 -15.515625 C 9.40625 -13.894531 8.597656 -11.917969 8.597656 -9.589844 C 8.597656 -7.324219 9.40625 -5.378906 11.027344 -3.761719 C 12.644531 -2.140625 14.585938 -1.332031 16.855469 -1.332031 C 19.183594 -1.332031 21.160156 -2.140625 22.777344 -3.761719 C 24.398438 -5.378906 25.207031 -7.324219 25.207031 -9.589844 C 25.207031 -11.917969 24.398438 -13.894531 22.777344 -15.515625 C 21.160156 -17.132812 19.183594 -17.941406 16.855469 -17.941406 Z M 16.855469 -17.941406 "/></g></g></g><g fill="#ffffff" fill-opacity="1"><g transform="translate(2.170385, 86.640682)"><g><path d="M 5.8125 -79.90625 L 30.609375 -79.90625 C 38.097656 -79.90625 44.066406 -78.304688 48.515625 -75.109375 C 52.972656 -71.910156 55.203125 -66.726562 55.203125 -59.5625 C 55.203125 -51.5625 51.878906 -45.847656 45.234375 -42.421875 C 56.597656 -40.421875 62.28125 -33.707031 62.28125 -22.28125 C 62.28125 -15.5625 59.953125 -10.164062 55.296875 -6.09375 C 50.648438 -2.03125 44.257812 0 36.125 0 L 5.8125 0 Z M 24.015625 -48.625 L 25.46875 -48.625 C 29.539062 -48.625 32.578125 -49.332031 34.578125 -50.75 C 36.578125 -52.175781 37.578125 -54.503906 37.578125 -57.734375 C 37.578125 -63.148438 33.539062 -65.859375 25.46875 -65.859375 L 24.015625 -65.859375 Z M 24.015625 -14.046875 L 29.734375 -14.046875 C 38.648438 -14.046875 43.109375 -17.015625 43.109375 -22.953125 C 43.109375 -26.503906 41.992188 -29.054688 39.765625 -30.609375 C 37.535156 -32.160156 34.191406 -32.9375 29.734375 -32.9375 L 24.015625 -32.9375 Z M 24.015625 -14.046875 "/></g></g></g><g fill="#ffffff" fill-opacity="1"><g transform="translate(63.765021, 86.640682)"><g><path d="M -2.90625 -79.90625 L 18.984375 -79.90625 L 35.640625 -54.34375 L 52.296875 -79.90625 L 74.1875 -79.90625 L 44.75 -35.84375 L 44.75 0 L 26.546875 0 L 26.546875 -35.84375 Z M -2.90625 -79.90625 "/></g></g></g><g fill="#ffffff" fill-opacity="1"><g transform="translate(135.044825, 86.640682)"><g><path d="M 78.546875 0 L 53.46875 0 L 24.015625 -33.90625 L 24.015625 0 L 5.8125 0 L 5.8125 -79.90625 L 24.015625 -79.90625 L 24.015625 -47.265625 L 51.4375 -79.90625 L 73.515625 -79.90625 L 41.359375 -42.03125 Z M 78.546875 0 "/></g></g></g><g fill="#ffffff" fill-opacity="1"><g transform="translate(211.263845, 86.640682)"><g><path d="M 16.859375 -20.734375 C 19.953125 -20.734375 22.582031 -19.648438 24.75 -17.484375 C 26.914062 -15.316406 28 -12.6875 28 -9.59375 C 28 -6.550781 26.914062 -3.945312 24.75 -1.78125 C 22.582031 0.375 19.953125 1.453125 16.859375 1.453125 C 13.816406 1.453125 11.210938 0.375 9.046875 -1.78125 C 6.890625 -3.945312 5.8125 -6.550781 5.8125 -9.59375 C 5.8125 -12.6875 6.890625 -15.316406 9.046875 -17.484375 C 11.210938 -19.648438 13.816406 -20.734375 16.859375 -20.734375 Z M 16.859375 -20.734375 "/></g></g></g><g fill="#ffffff" fill-opacity="1"><g transform="translate(245.063641, 86.640682)"><g><path d="M 46.390625 -79.90625 L 78.65625 0 L 59.078125 0 L 53.171875 -15.984375 L 22.765625 -15.984375 L 16.859375 0 L -2.71875 0 L 29.546875 -79.90625 Z M 46.984375 -31.96875 L 38.0625 -55.203125 L 37.875 -55.203125 L 28.96875 -31.96875 Z M 46.984375 -31.96875 "/></g></g></g><g fill="#ffffff" fill-opacity="1"><g transform="translate(320.992109, 86.640682)"><g><path d="M 16.859375 -20.734375 C 19.953125 -20.734375 22.582031 -19.648438 24.75 -17.484375 C 26.914062 -15.316406 28 -12.6875 28 -9.59375 C 28 -6.550781 26.914062 -3.945312 24.75 -1.78125 C 22.582031 0.375 19.953125 1.453125 16.859375 1.453125 C 13.816406 1.453125 11.210938 0.375 9.046875 -1.78125 C 6.890625 -3.945312 5.8125 -6.550781 5.8125 -9.59375 C 5.8125 -12.6875 6.890625 -15.316406 9.046875 -17.484375 C 11.210938 -19.648438 13.816406 -20.734375 16.859375 -20.734375 Z M 16.859375 -20.734375 "/></g></g></g></g></g><g transform="matrix(1, 0, 0, 1, 215, 108)"><g clip-path="url(#4fde5e5677)"><g fill="#000000" fill-opacity="1"><g transform="translate(0.989692, 25.467108)"><g><path d="M 7.3125 0.28125 C 6.070312 0.28125 4.972656 -0.03125 4.015625 -0.65625 C 3.066406 -1.289062 2.328125 -2.164062 1.796875 -3.28125 C 1.273438 -4.40625 1.015625 -5.703125 1.015625 -7.171875 C 1.015625 -8.628906 1.273438 -9.914062 1.796875 -11.03125 C 2.328125 -12.15625 3.066406 -13.03125 4.015625 -13.65625 C 4.972656 -14.289062 6.070312 -14.609375 7.3125 -14.609375 C 8.164062 -14.609375 8.910156 -14.457031 9.546875 -14.15625 C 10.179688 -13.863281 10.789062 -13.3125 11.375 -12.5 L 11.375 -19.453125 L 14.8125 -19.453125 L 14.8125 0 L 11.375 0 L 11.375 -1.8125 C 10.789062 -1.007812 10.179688 -0.457031 9.546875 -0.15625 C 8.910156 0.132812 8.164062 0.28125 7.3125 0.28125 Z M 8.109375 -2.671875 C 9.210938 -2.671875 10.101562 -3.085938 10.78125 -3.921875 C 11.46875 -4.753906 11.8125 -5.835938 11.8125 -7.171875 C 11.8125 -8.492188 11.46875 -9.570312 10.78125 -10.40625 C 10.101562 -11.238281 9.210938 -11.65625 8.109375 -11.65625 C 7.023438 -11.65625 6.148438 -11.234375 5.484375 -10.390625 C 4.816406 -9.546875 4.484375 -8.472656 4.484375 -7.171875 C 4.484375 -5.878906 4.816406 -4.804688 5.484375 -3.953125 C 6.148438 -3.097656 7.023438 -2.671875 8.109375 -2.671875 Z M 8.109375 -2.671875 "/></g></g></g><g fill="#000000" fill-opacity="1"><g transform="translate(22.245077, 25.467108)"><g><path d="M 8.265625 0.28125 C 6.796875 0.28125 5.515625 -0.0351562 4.421875 -0.671875 C 3.328125 -1.304688 2.476562 -2.175781 1.875 -3.28125 C 1.269531 -4.394531 0.96875 -5.65625 0.96875 -7.0625 C 0.96875 -8 1.113281 -8.914062 1.40625 -9.8125 C 1.695312 -10.71875 2.140625 -11.53125 2.734375 -12.25 C 3.328125 -12.976562 4.070312 -13.550781 4.96875 -13.96875 C 5.875 -14.394531 6.9375 -14.609375 8.15625 -14.609375 C 9.070312 -14.609375 9.957031 -14.460938 10.8125 -14.171875 C 11.675781 -13.890625 12.445312 -13.445312 13.125 -12.84375 C 13.8125 -12.238281 14.351562 -11.46875 14.75 -10.53125 C 15.144531 -9.59375 15.34375 -8.476562 15.34375 -7.1875 L 15.34375 -6.453125 L 4.53125 -6.453125 C 4.570312 -6.148438 4.640625 -5.847656 4.734375 -5.546875 C 4.835938 -5.242188 4.953125 -4.984375 5.078125 -4.765625 C 5.410156 -4.109375 5.863281 -3.59375 6.4375 -3.21875 C 7.007812 -2.851562 7.660156 -2.671875 8.390625 -2.671875 C 9.203125 -2.671875 9.882812 -2.882812 10.4375 -3.3125 C 10.988281 -3.738281 11.378906 -4.238281 11.609375 -4.8125 L 15.125 -4.8125 C 14.851562 -3.894531 14.414062 -3.050781 13.8125 -2.28125 C 13.21875 -1.507812 12.460938 -0.890625 11.546875 -0.421875 C 10.628906 0.046875 9.535156 0.28125 8.265625 0.28125 Z M 4.6875 -9.03125 L 11.828125 -9.03125 C 11.816406 -9.21875 11.769531 -9.425781 11.6875 -9.65625 C 11.613281 -9.894531 11.484375 -10.128906 11.296875 -10.359375 C 10.972656 -10.867188 10.539062 -11.25 10 -11.5 C 9.46875 -11.757812 8.890625 -11.890625 8.265625 -11.890625 C 7.628906 -11.890625 7.050781 -11.757812 6.53125 -11.5 C 6.019531 -11.25 5.59375 -10.867188 5.25 -10.359375 C 5.0625 -10.128906 4.929688 -9.894531 4.859375 -9.65625 C 4.785156 -9.425781 4.726562 -9.21875 4.6875 -9.03125 Z M 4.6875 -9.03125 "/></g></g></g><g fill="#000000" fill-opacity="1"><g transform="translate(43.424019, 25.467108)"><g><path d="M 7.75 0.28125 C 6.664062 0.28125 5.628906 0.109375 4.640625 -0.234375 C 3.648438 -0.585938 2.816406 -1.140625 2.140625 -1.890625 C 1.472656 -2.648438 1.054688 -3.625 0.890625 -4.8125 L 4.28125 -4.8125 C 4.5 -4.03125 4.90625 -3.4375 5.5 -3.03125 C 6.101562 -2.625 6.84375 -2.421875 7.71875 -2.421875 C 8.457031 -2.421875 9.0625 -2.566406 9.53125 -2.859375 C 10.007812 -3.148438 10.25 -3.554688 10.25 -4.078125 C 10.25 -4.503906 10.09375 -4.835938 9.78125 -5.078125 C 9.46875 -5.328125 9.054688 -5.519531 8.546875 -5.65625 C 8.035156 -5.789062 7.472656 -5.921875 6.859375 -6.046875 C 6.242188 -6.160156 5.617188 -6.300781 4.984375 -6.46875 C 4.347656 -6.644531 3.765625 -6.878906 3.234375 -7.171875 C 2.710938 -7.472656 2.289062 -7.875 1.96875 -8.375 C 1.644531 -8.875 1.484375 -9.523438 1.484375 -10.328125 C 1.484375 -11.328125 1.738281 -12.140625 2.25 -12.765625 C 2.757812 -13.398438 3.429688 -13.863281 4.265625 -14.15625 C 5.109375 -14.457031 6.023438 -14.609375 7.015625 -14.609375 C 8.679688 -14.609375 10.070312 -14.1875 11.1875 -13.34375 C 12.3125 -12.507812 13.003906 -11.304688 13.265625 -9.734375 L 10.015625 -9.734375 C 9.816406 -10.515625 9.4375 -11.070312 8.875 -11.40625 C 8.3125 -11.738281 7.679688 -11.90625 6.984375 -11.90625 C 6.304688 -11.90625 5.765625 -11.773438 5.359375 -11.515625 C 4.960938 -11.253906 4.765625 -10.898438 4.765625 -10.453125 C 4.765625 -10.066406 4.914062 -9.757812 5.21875 -9.53125 C 5.53125 -9.3125 5.9375 -9.140625 6.4375 -9.015625 C 6.9375 -8.898438 7.476562 -8.785156 8.0625 -8.671875 C 8.6875 -8.546875 9.328125 -8.398438 9.984375 -8.234375 C 10.640625 -8.078125 11.242188 -7.847656 11.796875 -7.546875 C 12.347656 -7.253906 12.789062 -6.847656 13.125 -6.328125 C 13.46875 -5.816406 13.640625 -5.148438 13.640625 -4.328125 C 13.640625 -2.941406 13.117188 -1.828125 12.078125 -0.984375 C 11.046875 -0.140625 9.601562 0.28125 7.75 0.28125 Z M 7.75 0.28125 "/></g></g></g><g fill="#000000" fill-opacity="1"><g transform="translate(62.972134, 25.467108)"><g><path d="M 3.296875 -15.890625 C 2.710938 -15.890625 2.210938 -16.066406 1.796875 -16.421875 C 1.378906 -16.773438 1.171875 -17.25 1.171875 -17.84375 C 1.171875 -18.425781 1.378906 -18.898438 1.796875 -19.265625 C 2.210938 -19.628906 2.710938 -19.8125 3.296875 -19.8125 C 3.867188 -19.8125 4.363281 -19.628906 4.78125 -19.265625 C 5.195312 -18.898438 5.40625 -18.425781 5.40625 -17.84375 C 5.40625 -17.25 5.195312 -16.773438 4.78125 -16.421875 C 4.363281 -16.066406 3.867188 -15.890625 3.296875 -15.890625 Z M 5 0 L 1.5625 0 L 1.5625 -14.3125 L 5 -14.3125 Z M 5 0 "/></g></g></g><g fill="#000000" fill-opacity="1"><g transform="translate(74.417081, 25.467108)"><g><path d="M 8.140625 5.4375 C 7.171875 5.4375 6.210938 5.300781 5.265625 5.03125 C 4.316406 4.769531 3.503906 4.296875 2.828125 3.609375 C 2.148438 2.929688 1.707031 1.984375 1.5 0.765625 L 4.96875 0.765625 C 5.1875 1.460938 5.554688 1.96875 6.078125 2.28125 C 6.597656 2.59375 7.273438 2.75 8.109375 2.75 C 9.285156 2.75 10.128906 2.476562 10.640625 1.9375 C 11.160156 1.40625 11.421875 0.722656 11.421875 -0.109375 L 11.421875 -2.109375 C 10.847656 -1.296875 10.238281 -0.742188 9.59375 -0.453125 C 8.945312 -0.171875 8.195312 -0.03125 7.34375 -0.03125 C 6.101562 -0.03125 5.007812 -0.34375 4.0625 -0.96875 C 3.125 -1.59375 2.390625 -2.445312 1.859375 -3.53125 C 1.335938 -4.625 1.078125 -5.867188 1.078125 -7.265625 C 1.078125 -8.691406 1.335938 -9.957031 1.859375 -11.0625 C 2.390625 -12.164062 3.125 -13.03125 4.0625 -13.65625 C 5.007812 -14.289062 6.101562 -14.609375 7.34375 -14.609375 C 8.195312 -14.609375 8.945312 -14.453125 9.59375 -14.140625 C 10.238281 -13.835938 10.847656 -13.289062 11.421875 -12.5 L 11.421875 -14.3125 L 14.859375 -14.3125 L 14.859375 -0.921875 C 14.859375 0.710938 14.5625 1.992188 13.96875 2.921875 C 13.375 3.847656 12.566406 4.5 11.546875 4.875 C 10.523438 5.25 9.390625 5.4375 8.140625 5.4375 Z M 8.15625 -2.984375 C 8.882812 -2.984375 9.523438 -3.171875 10.078125 -3.546875 C 10.628906 -3.921875 11.0625 -4.429688 11.375 -5.078125 C 11.695312 -5.734375 11.859375 -6.476562 11.859375 -7.3125 C 11.859375 -8.144531 11.695312 -8.890625 11.375 -9.546875 C 11.0625 -10.203125 10.628906 -10.71875 10.078125 -11.09375 C 9.523438 -11.46875 8.882812 -11.65625 8.15625 -11.65625 C 7.425781 -11.65625 6.789062 -11.460938 6.25 -11.078125 C 5.707031 -10.691406 5.285156 -10.171875 4.984375 -9.515625 C 4.679688 -8.867188 4.53125 -8.132812 4.53125 -7.3125 C 4.53125 -6.5 4.679688 -5.765625 4.984375 -5.109375 C 5.285156 -4.453125 5.707031 -3.929688 6.25 -3.546875 C 6.789062 -3.171875 7.425781 -2.984375 8.15625 -2.984375 Z M 8.15625 -2.984375 "/></g></g></g><g fill="#000000" fill-opacity="1"><g transform="translate(95.697955, 25.467108)"><g><path d="M 5 0 L 1.5625 0 L 1.5625 -14.3125 L 5 -14.3125 L 5 -12.5 C 5.570312 -13.289062 6.171875 -13.835938 6.796875 -14.140625 C 7.429688 -14.453125 8.132812 -14.609375 8.90625 -14.609375 C 10.207031 -14.609375 11.191406 -14.375 11.859375 -13.90625 C 12.535156 -13.4375 13.035156 -12.875 13.359375 -12.21875 C 13.648438 -11.582031 13.820312 -10.9375 13.875 -10.28125 C 13.925781 -9.632812 13.953125 -8.953125 13.953125 -8.234375 L 13.953125 0 L 10.53125 0 L 10.53125 -8.28125 C 10.53125 -9.019531 10.46875 -9.613281 10.34375 -10.0625 C 10.226562 -10.507812 10.050781 -10.867188 9.8125 -11.140625 C 9.40625 -11.566406 8.800781 -11.78125 8 -11.78125 C 7.03125 -11.78125 6.3125 -11.488281 5.84375 -10.90625 C 5.550781 -10.570312 5.335938 -10.125 5.203125 -9.5625 C 5.066406 -9 5 -8.242188 5 -7.296875 Z M 5 0 "/></g></g></g></g></g></svg>