<svg xmlns="http://www.w3.org/2000/svg" xmlns:xlink="http://www.w3.org/1999/xlink" width="500" zoomAndPan="magnify" viewBox="0 0 375 374.999991" height="500" preserveAspectRatio="xMidYMid meet" version="1.0"><defs><g/><clipPath id="2f3aa6ac7f"><path d="M 203.171875 114.773438 L 340.148438 114.773438 L 340.148438 139.21875 L 203.171875 139.21875 Z M 203.171875 114.773438 " clip-rule="nonzero"/></clipPath><clipPath id="105b62cfed"><path d="M 0.171875 0.773438 L 137.148438 0.773438 L 137.148438 25.21875 L 0.171875 25.21875 Z M 0.171875 0.773438 " clip-rule="nonzero"/></clipPath><clipPath id="c6b5fbd21a"><rect x="0" width="138" y="0" height="26"/></clipPath><clipPath id="7e0bfd397c"><path d="M 323.695312 150.019531 L 331 150.019531 L 331 159.019531 L 323.695312 159.019531 Z M 323.695312 150.019531 " clip-rule="nonzero"/></clipPath><clipPath id="cf5c19a6e8"><path d="M 331 150.019531 L 340.195312 150.019531 L 340.195312 159.019531 L 331 159.019531 Z M 331 150.019531 " clip-rule="nonzero"/></clipPath><clipPath id="624b08d6a3"><rect x="0" width="351" y="0" height="120"/></clipPath><clipPath id="e5b3517f2c"><rect x="0" width="115" y="0" height="33"/></clipPath></defs><rect x="-37.5" width="450" fill="#ffffff" y="-37.499999" height="449.999989" fill-opacity="1"/><rect x="-37.5" width="450" fill="#ffffff" y="-37.499999" height="449.999989" fill-opacity="1"/><g clip-path="url(#2f3aa6ac7f)"><g transform="matrix(1, 0, 0, 1, 203, 114)"><g clip-path="url(#c6b5fbd21a)"><g clip-path="url(#105b62cfed)"><path fill="#000000" d="M 0.171875 0.773438 L 137.109375 0.773438 L 137.109375 25.21875 L 0.171875 25.21875 Z M 0.171875 0.773438 " fill-opacity="1" fill-rule="nonzero"/></g></g></g></g><g clip-path="url(#7e0bfd397c)"><path fill="#000000" d="M 326.292969 159.019531 L 326.292969 151.539062 L 323.699219 151.539062 L 323.699219 150.019531 L 330.640625 150.019531 L 330.640625 151.539062 L 328.054688 151.539062 L 328.054688 159.019531 Z M 326.292969 159.019531 " fill-opacity="1" fill-rule="nonzero"/></g><g clip-path="url(#cf5c19a6e8)"><path fill="#000000" d="M 331.753906 159.019531 L 331.753906 150.019531 L 334.390625 150.019531 L 335.976562 156.15625 L 337.542969 150.019531 L 340.1875 150.019531 L 340.1875 159.019531 L 338.550781 159.019531 L 338.550781 151.933594 L 336.816406 159.019531 L 335.117188 159.019531 L 333.390625 151.933594 L 333.390625 159.019531 Z M 331.753906 159.019531 " fill-opacity="1" fill-rule="nonzero"/></g><g transform="matrix(1, 0, 0, 1, 12, 146)"><g clip-path="url(#624b08d6a3)"><g fill="#000000" fill-opacity="1"><g transform="translate(1.566782, 85.040786)"><g><path d="M 5.734375 -81.570312 L 30.191406 -81.570312 C 38.167969 -81.570312 44.59375 -79.824219 49.46875 -76.328125 C 54.628906 -72.625 57.207031 -66.769531 57.207031 -58.761719 C 57.207031 -54.316406 56.261719 -50.472656 54.375 -47.226562 C 52.464844 -43.945312 49.632812 -41.339844 45.875 -39.40625 L 44.621094 -41.847656 L 45.097656 -44.554688 C 51.355469 -43.453125 56.097656 -40.992188 59.328125 -37.171875 C 62.5625 -33.347656 64.183594 -28.285156 64.183594 -21.976562 C 64.183594 -14.519531 61.578125 -8.511719 56.363281 -3.953125 C 51.261719 0.515625 44.351562 2.746094 35.636719 2.746094 L 2.984375 2.746094 L 2.984375 -81.570312 Z M 5.734375 -76.078125 L 5.734375 -78.824219 L 8.480469 -78.824219 L 8.480469 0 L 5.734375 0 L 5.734375 -2.746094 L 35.636719 -2.746094 C 42.976562 -2.746094 48.679688 -4.527344 52.746094 -8.085938 C 56.707031 -11.550781 58.6875 -16.183594 58.6875 -21.976562 C 58.6875 -26.941406 57.503906 -30.824219 55.132812 -33.625 C 52.757812 -36.429688 49.09375 -38.269531 44.144531 -39.144531 L 36.109375 -40.558594 L 43.363281 -44.292969 C 46.167969 -45.734375 48.253906 -47.632812 49.625 -49.988281 C 51.015625 -52.382812 51.714844 -55.304688 51.714844 -58.761719 C 51.714844 -64.890625 49.898438 -69.257812 46.265625 -71.863281 C 42.351562 -74.671875 36.992188 -76.078125 30.191406 -76.078125 Z M 23.695312 -50.710938 L 25.128906 -50.710938 C 28.558594 -50.710938 31.019531 -51.242188 32.519531 -52.304688 C 33.722656 -53.160156 34.324219 -54.707031 34.324219 -56.945312 C 34.324219 -58.644531 33.734375 -59.890625 32.554688 -60.683594 C 31.027344 -61.710938 28.550781 -62.222656 25.128906 -62.222656 L 23.695312 -62.222656 L 23.695312 -64.96875 L 26.441406 -64.96875 L 26.441406 -47.964844 L 23.695312 -47.964844 Z M 20.949219 -45.214844 L 20.949219 -67.71875 L 25.128906 -67.71875 C 29.667969 -67.71875 33.164062 -66.894531 35.617188 -65.242188 C 38.417969 -63.363281 39.820312 -60.59375 39.820312 -56.945312 C 39.820312 -52.8125 38.445312 -49.773438 35.699219 -47.824219 C 33.25 -46.085938 29.726562 -45.214844 25.128906 -45.214844 Z M 23.695312 -16.601562 L 29.332031 -16.601562 C 33.171875 -16.601562 35.960938 -17.179688 37.695312 -18.335938 C 39.078125 -19.257812 39.769531 -20.695312 39.769531 -22.644531 C 39.769531 -25.191406 39.0625 -26.953125 37.652344 -27.9375 C 35.925781 -29.136719 33.152344 -29.738281 29.332031 -29.738281 L 23.695312 -29.738281 L 23.695312 -32.484375 L 26.441406 -32.484375 L 26.441406 -13.855469 L 23.695312 -13.855469 Z M 20.949219 -11.105469 L 20.949219 -35.230469 L 29.332031 -35.230469 C 34.300781 -35.230469 38.121094 -34.304688 40.789062 -32.445312 C 43.773438 -30.371094 45.265625 -27.105469 45.265625 -22.644531 C 45.265625 -18.734375 43.757812 -15.773438 40.746094 -13.765625 C 38.085938 -11.992188 34.28125 -11.105469 29.332031 -11.105469 Z M 20.949219 -11.105469 "/></g></g></g><g fill="#000000" fill-opacity="1"><g transform="translate(62.324316, 85.040786)"><g><path d="M -2.867188 -81.570312 L 20.214844 -81.570312 L 37.460938 -55.101562 L 35.160156 -53.601562 L 32.859375 -55.101562 L 50.105469 -81.570312 L 78.328125 -81.570312 L 46.425781 -33.824219 L 44.140625 -35.351562 L 46.886719 -35.351562 L 46.886719 2.746094 L 23.433594 2.746094 L 23.433594 -35.351562 L 26.179688 -35.351562 L 23.894531 -33.824219 L -8.003906 -81.570312 Z M -2.867188 -76.078125 L -2.867188 -78.824219 L -0.582031 -80.351562 L 28.925781 -36.183594 L 28.925781 0 L 26.179688 0 L 26.179688 -2.746094 L 44.140625 -2.746094 L 44.140625 0 L 41.394531 0 L 41.394531 -36.183594 L 70.902344 -80.351562 L 73.1875 -78.824219 L 73.1875 -76.078125 L 51.59375 -76.078125 L 51.59375 -78.824219 L 53.894531 -77.324219 L 35.160156 -48.566406 L 16.425781 -77.324219 L 18.726562 -78.824219 L 18.726562 -76.078125 Z M -2.867188 -76.078125 "/></g></g></g><g fill="#000000" fill-opacity="1"><g transform="translate(132.635393, 85.040786)"><g><path d="M 77.488281 2.746094 L 51.488281 2.746094 L 21.621094 -31.640625 L 23.695312 -33.441406 L 26.441406 -33.441406 L 26.441406 2.746094 L 2.984375 2.746094 L 2.984375 -81.570312 L 26.441406 -81.570312 L 26.441406 -46.625 L 23.695312 -46.625 L 21.589844 -48.390625 L 49.453125 -81.570312 L 78.453125 -81.570312 L 42.890625 -39.6875 L 40.796875 -41.464844 L 42.855469 -43.285156 L 83.585938 2.746094 Z M 77.488281 -2.746094 L 77.488281 0 L 75.429688 1.820312 L 37.164062 -41.429688 L 70.425781 -80.601562 L 72.519531 -78.824219 L 72.519531 -76.078125 L 50.734375 -76.078125 L 50.734375 -78.824219 L 52.835938 -77.058594 L 20.949219 -39.082031 L 20.949219 -78.824219 L 23.695312 -78.824219 L 23.695312 -76.078125 L 5.734375 -76.078125 L 5.734375 -78.824219 L 8.480469 -78.824219 L 8.480469 0 L 5.734375 0 L 5.734375 -2.746094 L 23.695312 -2.746094 L 23.695312 0 L 20.949219 0 L 20.949219 -40.792969 L 54.816406 -1.800781 L 52.742188 0 L 52.742188 -2.746094 Z M 77.488281 -2.746094 "/></g></g></g><g fill="#000000" fill-opacity="1"><g transform="translate(207.818558, 85.040786)"><g><path d="M 16.625 -23.195312 C 20.441406 -23.195312 23.683594 -21.859375 26.355469 -19.1875 C 29.023438 -16.519531 30.359375 -13.273438 30.359375 -9.457031 C 30.359375 -5.707031 29.023438 -2.496094 26.355469 0.175781 C 23.683594 2.84375 20.441406 4.179688 16.625 4.179688 C 12.871094 4.179688 9.660156 2.84375 6.992188 0.175781 C 4.320312 -2.496094 2.984375 -5.707031 2.984375 -9.457031 C 2.984375 -13.273438 4.320312 -16.519531 6.992188 -19.1875 C 9.660156 -21.859375 12.871094 -23.195312 16.625 -23.195312 Z M 16.625 -17.699219 C 14.390625 -17.699219 12.472656 -16.902344 10.875 -15.304688 C 9.277344 -13.707031 8.480469 -11.757812 8.480469 -9.457031 C 8.480469 -7.222656 9.277344 -5.308594 10.875 -3.710938 C 12.472656 -2.113281 14.390625 -1.3125 16.625 -1.3125 C 18.921875 -1.3125 20.871094 -2.113281 22.46875 -3.710938 C 24.066406 -5.308594 24.867188 -7.222656 24.867188 -9.457031 C 24.867188 -11.757812 24.066406 -13.707031 22.46875 -15.304688 C 20.871094 -16.902344 18.921875 -17.699219 16.625 -17.699219 Z M 16.625 -17.699219 "/></g></g></g><g fill="#000000" fill-opacity="1"><g transform="translate(241.158998, 85.040786)"><g><path d="M 48.3125 -79.851562 L 81.652344 2.746094 L 56.367188 2.746094 L 49.878906 -14.8125 L 52.453125 -15.765625 L 52.453125 -13.019531 L 22.453125 -13.019531 L 22.453125 -15.765625 L 25.03125 -14.8125 L 18.539062 2.746094 L -6.746094 2.746094 L 27.289062 -81.570312 L 47.621094 -81.570312 Z M 43.21875 -77.796875 L 45.765625 -78.824219 L 45.765625 -76.078125 L 29.140625 -76.078125 L 29.140625 -78.824219 L 31.6875 -77.796875 L -0.128906 1.027344 L -2.675781 0 L -2.675781 -2.746094 L 16.625 -2.746094 L 16.625 0 L 14.046875 -0.953125 L 20.539062 -18.511719 L 54.367188 -18.511719 L 60.859375 -0.953125 L 58.28125 0 L 58.28125 -2.746094 L 77.582031 -2.746094 L 77.582031 0 L 75.035156 1.027344 Z M 43.773438 -30.546875 L 34.984375 -53.476562 L 37.550781 -54.460938 L 37.550781 -51.714844 L 37.359375 -51.714844 L 37.359375 -54.460938 L 39.921875 -53.476562 L 31.132812 -30.546875 L 28.566406 -31.53125 L 28.566406 -34.277344 L 46.339844 -34.277344 L 46.339844 -31.53125 Z M 50.335938 -28.78125 L 24.574219 -28.78125 L 35.46875 -57.207031 L 39.4375 -57.207031 L 48.902344 -32.511719 Z M 50.335938 -28.78125 "/></g></g></g><g fill="#000000" fill-opacity="1"><g transform="translate(316.055562, 85.040786)"><g><path d="M 16.625 -23.195312 C 20.441406 -23.195312 23.683594 -21.859375 26.355469 -19.1875 C 29.023438 -16.519531 30.359375 -13.273438 30.359375 -9.457031 C 30.359375 -5.707031 29.023438 -2.496094 26.355469 0.175781 C 23.683594 2.84375 20.441406 4.179688 16.625 4.179688 C 12.871094 4.179688 9.660156 2.84375 6.992188 0.175781 C 4.320312 -2.496094 2.984375 -5.707031 2.984375 -9.457031 C 2.984375 -13.273438 4.320312 -16.519531 6.992188 -19.1875 C 9.660156 -21.859375 12.871094 -23.195312 16.625 -23.195312 Z M 16.625 -17.699219 C 14.390625 -17.699219 12.472656 -16.902344 10.875 -15.304688 C 9.277344 -13.707031 8.480469 -11.757812 8.480469 -9.457031 C 8.480469 -7.222656 9.277344 -5.308594 10.875 -3.710938 C 12.472656 -2.113281 14.390625 -1.3125 16.625 -1.3125 C 18.921875 -1.3125 20.871094 -2.113281 22.46875 -3.710938 C 24.066406 -5.308594 24.867188 -7.222656 24.867188 -9.457031 C 24.867188 -11.757812 24.066406 -13.707031 22.46875 -15.304688 C 20.871094 -16.902344 18.921875 -17.699219 16.625 -17.699219 Z M 16.625 -17.699219 "/></g></g></g><g fill="#000000" fill-opacity="1"><g transform="translate(1.566782, 85.040786)"><g><path d="M 5.734375 -78.828125 L 30.1875 -78.828125 C 37.582031 -78.828125 43.476562 -77.25 47.875 -74.09375 C 52.269531 -70.9375 54.46875 -65.828125 54.46875 -58.765625 C 54.46875 -50.859375 51.1875 -45.21875 44.625 -41.84375 C 55.832031 -39.875 61.4375 -33.25 61.4375 -21.96875 C 61.4375 -15.34375 59.140625 -10.023438 54.546875 -6.015625 C 49.960938 -2.003906 43.660156 0 35.640625 0 L 5.734375 0 Z M 23.703125 -47.96875 L 25.125 -47.96875 C 29.132812 -47.96875 32.128906 -48.664062 34.109375 -50.0625 C 36.085938 -51.46875 37.078125 -53.765625 37.078125 -56.953125 C 37.078125 -62.296875 33.09375 -64.96875 25.125 -64.96875 L 23.703125 -64.96875 Z M 23.703125 -13.859375 L 29.328125 -13.859375 C 38.117188 -13.859375 42.515625 -16.785156 42.515625 -22.640625 C 42.515625 -26.148438 41.414062 -28.664062 39.21875 -30.1875 C 37.019531 -31.71875 33.722656 -32.484375 29.328125 -32.484375 L 23.703125 -32.484375 Z M 23.703125 -13.859375 "/></g></g></g><g fill="#000000" fill-opacity="1"><g transform="translate(62.324316, 85.040786)"><g><path d="M -2.859375 -78.828125 L 18.734375 -78.828125 L 35.15625 -53.609375 L 51.59375 -78.828125 L 73.1875 -78.828125 L 44.140625 -35.359375 L 44.140625 0 L 26.1875 0 L 26.1875 -35.359375 Z M -2.859375 -78.828125 "/></g></g></g><g fill="#000000" fill-opacity="1"><g transform="translate(132.635393, 85.040786)"><g><path d="M 77.484375 0 L 52.734375 0 L 23.703125 -33.4375 L 23.703125 0 L 5.734375 0 L 5.734375 -78.828125 L 23.703125 -78.828125 L 23.703125 -46.625 L 50.734375 -78.828125 L 72.515625 -78.828125 L 40.796875 -41.46875 Z M 77.484375 0 "/></g></g></g><g fill="#000000" fill-opacity="1"><g transform="translate(207.818558, 85.040786)"><g><path d="M 16.625 -20.453125 C 19.6875 -20.453125 22.28125 -19.382812 24.40625 -17.25 C 26.539062 -15.113281 27.609375 -12.515625 27.609375 -9.453125 C 27.609375 -6.460938 26.539062 -3.898438 24.40625 -1.765625 C 22.28125 0.367188 19.6875 1.4375 16.625 1.4375 C 13.632812 1.4375 11.070312 0.367188 8.9375 -1.765625 C 6.800781 -3.898438 5.734375 -6.460938 5.734375 -9.453125 C 5.734375 -12.515625 6.800781 -15.113281 8.9375 -17.25 C 11.070312 -19.382812 13.632812 -20.453125 16.625 -20.453125 Z M 16.625 -20.453125 "/></g></g></g><g fill="#000000" fill-opacity="1"><g transform="translate(241.158998, 85.040786)"><g><path d="M 45.765625 -78.828125 L 77.578125 0 L 58.28125 0 L 52.453125 -15.765625 L 22.453125 -15.765625 L 16.625 0 L -2.671875 0 L 29.140625 -78.828125 Z M 46.34375 -31.53125 L 37.546875 -54.46875 L 37.359375 -54.46875 L 28.5625 -31.53125 Z M 46.34375 -31.53125 "/></g></g></g><g fill="#000000" fill-opacity="1"><g transform="translate(316.055562, 85.040786)"><g><path d="M 16.625 -20.453125 C 19.6875 -20.453125 22.28125 -19.382812 24.40625 -17.25 C 26.539062 -15.113281 27.609375 -12.515625 27.609375 -9.453125 C 27.609375 -6.460938 26.539062 -3.898438 24.40625 -1.765625 C 22.28125 0.367188 19.6875 1.4375 16.625 1.4375 C 13.632812 1.4375 11.070312 0.367188 8.9375 -1.765625 C 6.800781 -3.898438 5.734375 -6.460938 5.734375 -9.453125 C 5.734375 -12.515625 6.800781 -15.113281 8.9375 -17.25 C 11.070312 -19.382812 13.632812 -20.453125 16.625 -20.453125 Z M 16.625 -20.453125 "/></g></g></g></g></g><g transform="matrix(1, 0, 0, 1, 215, 109)"><g clip-path="url(#e5b3517f2c)"><g fill="#ffffff" fill-opacity="1"><g transform="translate(0.60249, 25.201461)"><g><path d="M 7.21875 0.28125 C 6 0.28125 4.914062 -0.0234375 3.96875 -0.640625 C 3.03125 -1.265625 2.300781 -2.128906 1.78125 -3.234375 C 1.257812 -4.347656 1 -5.625 1 -7.0625 C 1 -8.507812 1.257812 -9.785156 1.78125 -10.890625 C 2.300781 -11.992188 3.03125 -12.859375 3.96875 -13.484375 C 4.914062 -14.109375 6 -14.421875 7.21875 -14.421875 C 8.0625 -14.421875 8.796875 -14.269531 9.421875 -13.96875 C 10.046875 -13.675781 10.644531 -13.128906 11.21875 -12.328125 L 11.21875 -19.1875 L 14.609375 -19.1875 L 14.609375 0 L 11.21875 0 L 11.21875 -1.78125 C 10.644531 -1 10.046875 -0.457031 9.421875 -0.15625 C 8.796875 0.132812 8.0625 0.28125 7.21875 0.28125 Z M 8 -2.640625 C 9.09375 -2.640625 9.972656 -3.050781 10.640625 -3.875 C 11.304688 -4.695312 11.640625 -5.757812 11.640625 -7.0625 C 11.640625 -8.375 11.304688 -9.441406 10.640625 -10.265625 C 9.972656 -11.085938 9.09375 -11.5 8 -11.5 C 6.925781 -11.5 6.0625 -11.082031 5.40625 -10.25 C 4.75 -9.414062 4.421875 -8.351562 4.421875 -7.0625 C 4.421875 -5.789062 4.75 -4.734375 5.40625 -3.890625 C 6.0625 -3.054688 6.925781 -2.640625 8 -2.640625 Z M 8 -2.640625 "/></g></g></g><g fill="#ffffff" fill-opacity="1"><g transform="translate(21.569002, 25.201461)"><g><path d="M 8.15625 0.28125 C 6.707031 0.28125 5.441406 -0.03125 4.359375 -0.65625 C 3.273438 -1.289062 2.4375 -2.148438 1.84375 -3.234375 C 1.25 -4.328125 0.953125 -5.570312 0.953125 -6.96875 C 0.953125 -7.894531 1.09375 -8.800781 1.375 -9.6875 C 1.664062 -10.570312 2.101562 -11.367188 2.6875 -12.078125 C 3.28125 -12.796875 4.019531 -13.363281 4.90625 -13.78125 C 5.789062 -14.207031 6.835938 -14.421875 8.046875 -14.421875 C 8.953125 -14.421875 9.828125 -14.273438 10.671875 -13.984375 C 11.523438 -13.703125 12.285156 -13.257812 12.953125 -12.65625 C 13.628906 -12.0625 14.160156 -11.300781 14.546875 -10.375 C 14.941406 -9.457031 15.140625 -8.363281 15.140625 -7.09375 L 15.140625 -6.359375 L 4.484375 -6.359375 C 4.515625 -6.054688 4.578125 -5.757812 4.671875 -5.46875 C 4.773438 -5.175781 4.882812 -4.921875 5 -4.703125 C 5.34375 -4.046875 5.789062 -3.535156 6.34375 -3.171875 C 6.90625 -2.816406 7.550781 -2.640625 8.28125 -2.640625 C 9.082031 -2.640625 9.753906 -2.847656 10.296875 -3.265625 C 10.847656 -3.691406 11.234375 -4.1875 11.453125 -4.75 L 14.921875 -4.75 C 14.648438 -3.84375 14.21875 -3.007812 13.625 -2.25 C 13.039062 -1.488281 12.296875 -0.875 11.390625 -0.40625 C 10.484375 0.0507812 9.40625 0.28125 8.15625 0.28125 Z M 4.625 -8.90625 L 11.671875 -8.90625 C 11.648438 -9.09375 11.601562 -9.300781 11.53125 -9.53125 C 11.457031 -9.769531 11.328125 -10 11.140625 -10.21875 C 10.828125 -10.71875 10.40625 -11.09375 9.875 -11.34375 C 9.34375 -11.59375 8.769531 -11.71875 8.15625 -11.71875 C 7.53125 -11.71875 6.960938 -11.59375 6.453125 -11.34375 C 5.941406 -11.09375 5.519531 -10.71875 5.1875 -10.21875 C 5 -10 4.863281 -9.769531 4.78125 -9.53125 C 4.707031 -9.300781 4.65625 -9.09375 4.625 -8.90625 Z M 4.625 -8.90625 "/></g></g></g><g fill="#ffffff" fill-opacity="1"><g transform="translate(42.460111, 25.201461)"><g><path d="M 7.640625 0.28125 C 6.566406 0.28125 5.546875 0.109375 4.578125 -0.234375 C 3.609375 -0.578125 2.789062 -1.125 2.125 -1.875 C 1.457031 -2.625 1.039062 -3.582031 0.875 -4.75 L 4.21875 -4.75 C 4.4375 -3.976562 4.835938 -3.390625 5.421875 -2.984375 C 6.015625 -2.585938 6.75 -2.390625 7.625 -2.390625 C 8.34375 -2.390625 8.9375 -2.53125 9.40625 -2.8125 C 9.875 -3.101562 10.109375 -3.507812 10.109375 -4.03125 C 10.109375 -4.445312 9.953125 -4.773438 9.640625 -5.015625 C 9.335938 -5.265625 8.929688 -5.453125 8.421875 -5.578125 C 7.921875 -5.710938 7.367188 -5.84375 6.765625 -5.96875 C 6.160156 -6.082031 5.539062 -6.222656 4.90625 -6.390625 C 4.28125 -6.554688 3.707031 -6.785156 3.1875 -7.078125 C 2.675781 -7.367188 2.257812 -7.757812 1.9375 -8.25 C 1.613281 -8.75 1.453125 -9.394531 1.453125 -10.1875 C 1.453125 -11.175781 1.703125 -11.976562 2.203125 -12.59375 C 2.710938 -13.21875 3.378906 -13.675781 4.203125 -13.96875 C 5.035156 -14.269531 5.941406 -14.421875 6.921875 -14.421875 C 8.566406 -14.421875 9.941406 -14.003906 11.046875 -13.171875 C 12.148438 -12.335938 12.828125 -11.148438 13.078125 -9.609375 L 9.890625 -9.609375 C 9.679688 -10.378906 9.300781 -10.925781 8.75 -11.25 C 8.195312 -11.582031 7.578125 -11.75 6.890625 -11.75 C 6.222656 -11.75 5.691406 -11.617188 5.296875 -11.359375 C 4.898438 -11.097656 4.703125 -10.75 4.703125 -10.3125 C 4.703125 -9.925781 4.851562 -9.625 5.15625 -9.40625 C 5.457031 -9.1875 5.851562 -9.019531 6.34375 -8.90625 C 6.84375 -8.789062 7.378906 -8.671875 7.953125 -8.546875 C 8.566406 -8.429688 9.195312 -8.296875 9.84375 -8.140625 C 10.488281 -7.984375 11.082031 -7.753906 11.625 -7.453125 C 12.175781 -7.160156 12.617188 -6.757812 12.953125 -6.25 C 13.285156 -5.738281 13.453125 -5.082031 13.453125 -4.28125 C 13.453125 -2.90625 12.941406 -1.800781 11.921875 -0.96875 C 10.898438 -0.132812 9.472656 0.28125 7.640625 0.28125 Z M 7.640625 0.28125 "/></g></g></g><g fill="#ffffff" fill-opacity="1"><g transform="translate(61.742557, 25.201461)"><g><path d="M 3.25 -15.671875 C 2.675781 -15.671875 2.179688 -15.847656 1.765625 -16.203125 C 1.359375 -16.554688 1.15625 -17.023438 1.15625 -17.609375 C 1.15625 -18.179688 1.359375 -18.644531 1.765625 -19 C 2.179688 -19.363281 2.675781 -19.546875 3.25 -19.546875 C 3.8125 -19.546875 4.296875 -19.363281 4.703125 -19 C 5.117188 -18.644531 5.328125 -18.179688 5.328125 -17.609375 C 5.328125 -17.023438 5.117188 -16.554688 4.703125 -16.203125 C 4.296875 -15.847656 3.8125 -15.671875 3.25 -15.671875 Z M 4.9375 0 L 1.53125 0 L 1.53125 -14.109375 L 4.9375 -14.109375 Z M 4.9375 0 "/></g></g></g><g fill="#ffffff" fill-opacity="1"><g transform="translate(73.031961, 25.201461)"><g><path d="M 8.03125 5.359375 C 7.070312 5.359375 6.125 5.226562 5.1875 4.96875 C 4.257812 4.707031 3.457031 4.238281 2.78125 3.5625 C 2.113281 2.894531 1.679688 1.957031 1.484375 0.75 L 4.90625 0.75 C 5.125 1.4375 5.488281 1.9375 6 2.25 C 6.507812 2.5625 7.175781 2.71875 8 2.71875 C 9.15625 2.71875 9.988281 2.453125 10.5 1.921875 C 11.007812 1.390625 11.265625 0.71875 11.265625 -0.09375 L 11.265625 -2.09375 C 10.703125 -1.28125 10.097656 -0.734375 9.453125 -0.453125 C 8.816406 -0.171875 8.082031 -0.03125 7.25 -0.03125 C 6.019531 -0.03125 4.9375 -0.335938 4 -0.953125 C 3.070312 -1.578125 2.347656 -2.425781 1.828125 -3.5 C 1.316406 -4.570312 1.0625 -5.796875 1.0625 -7.171875 C 1.0625 -8.578125 1.316406 -9.820312 1.828125 -10.90625 C 2.347656 -12 3.070312 -12.859375 4 -13.484375 C 4.9375 -14.109375 6.019531 -14.421875 7.25 -14.421875 C 8.082031 -14.421875 8.816406 -14.269531 9.453125 -13.96875 C 10.097656 -13.664062 10.703125 -13.117188 11.265625 -12.328125 L 11.265625 -14.109375 L 14.671875 -14.109375 L 14.671875 -0.90625 C 14.671875 0.707031 14.375 1.96875 13.78125 2.875 C 13.195312 3.789062 12.398438 4.429688 11.390625 4.796875 C 10.390625 5.171875 9.269531 5.359375 8.03125 5.359375 Z M 8.046875 -2.9375 C 8.765625 -2.9375 9.394531 -3.117188 9.9375 -3.484375 C 10.488281 -3.859375 10.921875 -4.367188 11.234375 -5.015625 C 11.546875 -5.660156 11.703125 -6.394531 11.703125 -7.21875 C 11.703125 -8.039062 11.546875 -8.773438 11.234375 -9.421875 C 10.921875 -10.066406 10.488281 -10.570312 9.9375 -10.9375 C 9.394531 -11.3125 8.765625 -11.5 8.046875 -11.5 C 7.328125 -11.5 6.695312 -11.304688 6.15625 -10.921875 C 5.625 -10.546875 5.210938 -10.035156 4.921875 -9.390625 C 4.628906 -8.742188 4.484375 -8.019531 4.484375 -7.21875 C 4.484375 -6.414062 4.628906 -5.691406 4.921875 -5.046875 C 5.210938 -4.398438 5.625 -3.882812 6.15625 -3.5 C 6.695312 -3.125 7.328125 -2.9375 8.046875 -2.9375 Z M 8.046875 -2.9375 "/></g></g></g><g fill="#ffffff" fill-opacity="1"><g transform="translate(94.023617, 25.201461)"><g><path d="M 4.9375 0 L 1.53125 0 L 1.53125 -14.109375 L 4.9375 -14.109375 L 4.9375 -12.328125 C 5.5 -13.117188 6.085938 -13.664062 6.703125 -13.96875 C 7.328125 -14.269531 8.019531 -14.421875 8.78125 -14.421875 C 10.070312 -14.421875 11.046875 -14.1875 11.703125 -13.71875 C 12.367188 -13.257812 12.863281 -12.703125 13.1875 -12.046875 C 13.46875 -11.429688 13.632812 -10.800781 13.6875 -10.15625 C 13.738281 -9.507812 13.765625 -8.832031 13.765625 -8.125 L 13.765625 0 L 10.390625 0 L 10.390625 -8.171875 C 10.390625 -8.890625 10.328125 -9.472656 10.203125 -9.921875 C 10.085938 -10.367188 9.914062 -10.726562 9.6875 -11 C 9.28125 -11.414062 8.6875 -11.625 7.90625 -11.625 C 6.945312 -11.625 6.234375 -11.335938 5.765625 -10.765625 C 5.472656 -10.429688 5.257812 -9.988281 5.125 -9.4375 C 5 -8.882812 4.9375 -8.132812 4.9375 -7.1875 Z M 4.9375 0 "/></g></g></g></g></g></svg>